<?xml version="1.0" encoding="utf-8"?>
<!-- Generator: Adobe Illustrator 16.0.0, SVG Export Plug-In . SVG Version: 6.00 Build 0)  -->
<!DOCTYPE svg PUBLIC "-//W3C//DTD SVG 1.1//EN" "http://www.w3.org/Graphics/SVG/1.1/DTD/svg11.dtd">
<svg version="1.1" id="Capa_1" xmlns="http://www.w3.org/2000/svg" xmlns:xlink="http://www.w3.org/1999/xlink" x="0px" y="0px"
	 width="300px" height="60px" viewBox="0 0 300 60" enable-background="new 0 0 300 60" xml:space="preserve">
<g>
	<g>
		<g>
			<polygon fill="#FFFFFF" points="12.328,13.741 12.328,18.731 29.846,18.731 29.846,3.871 4.787,3.871 4.787,28.596 10.11,28.596 
				10.11,8.862 24.744,8.862 24.744,13.741 			"/>
			<polygon fill="#FFFFFF" points="49.878,13.788 49.878,18.78 32.366,18.78 32.366,3.917 57.424,3.917 57.424,28.643 
				52.096,28.643 52.096,8.911 37.462,8.911 37.462,13.788 			"/>
			<polygon fill="#FFFFFF" points="12.328,46.257 12.328,41.267 29.846,41.267 29.846,56.129 4.787,56.129 4.787,31.397 
				10.11,31.397 10.11,51.134 24.744,51.134 24.744,46.257 			"/>
			<polygon fill="#FFFFFF" points="49.878,46.257 49.878,41.267 32.283,41.267 32.283,56.129 57.351,56.129 57.351,31.397 
				52.028,31.397 52.028,51.134 37.39,51.134 37.39,46.257 			"/>
			<polygon fill="#FFFFFF" points="12.328,21.176 12.328,26.153 24.878,26.153 24.878,33.809 12.328,33.809 12.328,38.782 
				29.846,38.782 29.846,38.742 29.846,33.809 29.846,26.153 29.846,21.221 29.846,21.176 			"/>
			<polygon fill="#FFFFFF" points="49.878,26.153 49.878,21.176 32.366,21.176 32.366,21.221 32.366,26.153 32.366,33.809 
				32.366,38.742 32.366,38.782 49.878,38.782 49.878,33.809 37.334,33.809 37.334,26.153 			"/>
		</g>
		<g>
			<path fill="#FFFFFF" d="M75.066,43.652V17.018h-4.449V15.92h14.897c1.633,0,3.013,0.083,4.134,0.246
				c1.115,0.164,2.186,0.592,3.218,1.275c1.036,0.689,1.778,1.542,2.226,2.547c0.454,1.015,0.681,1.969,0.681,2.876
				c0,3.419-2.632,5.663-7.887,6.728v0.111c5.932,0.957,8.894,3.42,8.894,7.386c0,0.972-0.266,2.007-0.795,3.088
				c-0.533,1.079-1.371,2.016-2.536,2.808c-1.161,0.785-2.343,1.272-3.558,1.471c-1.21,0.191-2.734,0.293-4.569,0.293H70.618v-1.099
				H75.066L75.066,43.652z M84.588,17.018h-4.406v12.099h3.958c2.685,0,4.394-0.521,5.135-1.568
				c0.749-1.044,1.119-2.694,1.119-4.943c0-1.763-0.244-3.046-0.731-3.848c-0.484-0.803-1.106-1.292-1.854-1.479
				C87.055,17.106,85.984,17.018,84.588,17.018z M84.099,30.216H80.18v13.436h4.045c1.506,0,2.702-0.116,3.594-0.347
				c0.899-0.229,1.666-0.839,2.297-1.837c0.63-1,0.949-2.565,0.949-4.7c0-2.275-0.48-3.937-1.431-4.988
				C88.681,30.739,86.833,30.216,84.099,30.216z"/>
			<path fill="#FFFFFF" d="M133.952,35.758h-9.154l-2.947,7.894h5.334v1.097h-10.453v-1.097h3.98l10.509-28.401h0.671l10.076,28.401
				h3.872v1.097h-13.74v-1.097h4.664L133.952,35.758z M125.2,34.659h8.365l-4.062-11.538h-0.086L125.2,34.659z"/>
			<path fill="#FFFFFF" d="M170.24,43.652V17.018h-4.515V15.92h14.163v1.098h-4.538v26.634h4.538v1.097h-14.163v-1.097H170.24z
				 M182.964,15.92h10.876v1.098h-4.409l-9.543,9.799l13.952,16.834h2.821v1.099h-14.17v-1.099h4.966l-11.612-14.237l12.015-12.397
				h-4.896V15.92z"/>
			<path fill="#FFFFFF" d="M233.761,35.758h-9.163l-2.943,7.894h5.327v1.097h-10.443v-1.097h3.978l10.517-28.401h0.663
				l10.079,28.401h3.869v1.097H231.91v-1.097h4.662L233.761,35.758z M225.004,34.659h8.366l-4.06-11.538h-0.09L225.004,34.659z"/>
			<path fill="#FFFFFF" d="M290.849,16.351v28.4h-0.875l-18.985-28.531h-0.091v26.767h4.885v1.091h-10.258v-1.091h4.283V16.351
				h-4.581v-1.099h11.009l13.434,20.208h0.083V16.351h-4.767v-1.099h10.227v1.099H290.849z"/>
		</g>
	</g>
</g>
</svg>
